<?xml version="1.0" encoding="UTF-8"?>
<!DOCTYPE svg PUBLIC "-//W3C//DTD SVG 1.1//EN" "http://www.w3.org/Graphics/SVG/1.1/DTD/svg11.dtd">
<svg xmlns="http://www.w3.org/2000/svg" version="1.1" width="210px" height="630px" style="shape-rendering:geometricPrecision; text-rendering:geometricPrecision; image-rendering:optimizeQuality; fill-rule:evenodd; clip-rule:evenodd" xmlns:xlink="http://www.w3.org/1999/xlink">
<g><path style="opacity:0.887" fill="#fefffe" d="M 31.5,13.5 C 41.1553,13.825 45.4887,18.825 44.5,28.5C 46.1439,28.2865 47.6439,28.6198 49,29.5C 49.8311,36.5237 49.6644,43.5237 48.5,50.5C 39.1667,51.8333 29.8333,51.8333 20.5,50.5C 19.3356,43.5237 19.1689,36.5237 20,29.5C 21.3561,28.6198 22.8561,28.2865 24.5,28.5C 22.9185,21.4786 25.2518,16.4786 31.5,13.5 Z M 32.5,18.5 C 38.6247,18.9809 40.958,22.3142 39.5,28.5C 35.8333,28.5 32.1667,28.5 28.5,28.5C 27.7494,24.1804 29.0827,20.8471 32.5,18.5 Z"/></g>
<g><path style="opacity:0.793" fill="#fefffe" d="M 27.5,83.5 C 47.7846,80.9503 55.618,89.617 51,109.5C 48.6419,113.358 45.4752,116.358 41.5,118.5C 42.3482,120.409 42.6816,122.409 42.5,124.5C 41.1667,124.5 39.8333,124.5 38.5,124.5C 37.0481,116.702 36.3814,117.036 36.5,125.5C 34.5,125.5 32.5,125.5 30.5,125.5C 30.8076,123.076 30.4742,120.743 29.5,118.5C 23.9625,117.129 20.1291,113.796 18,108.5C 14.7277,97.4014 17.8944,89.0681 27.5,83.5 Z M 33.5,88.5 C 44.7336,90.8427 48.2336,97.1761 44,107.5C 39.067,113.731 33.567,114.565 27.5,110C 20.1857,100.42 22.1857,93.2529 33.5,88.5 Z M 33.5,98.5 C 40.1291,100.34 40.1291,101.84 33.5,103C 32.2721,101.51 32.2721,100.01 33.5,98.5 Z"/></g>
<g><path style="opacity:0.808" fill="#fefffe" d="M 29.5,92.5 C 41.3297,90.1625 45.8297,94.8291 43,106.5C 42.1667,107.333 41.3333,108.167 40.5,109C 29.2151,111.96 24.7151,107.793 27,96.5C 27.6622,95.0161 28.4955,93.6828 29.5,92.5 Z M 33.5,98.5 C 32.2721,100.01 32.2721,101.51 33.5,103C 40.1291,101.84 40.1291,100.34 33.5,98.5 Z"/></g>
</svg>
